<svg width="20" height="20" viewBox="0 0 20 20" fill="none" xmlns="http://www.w3.org/2000/svg">
<path id="Spotify" fill-rule="evenodd" clip-rule="evenodd" d="M15.1984 8.50729C12.1396 6.69113 7.02569 6.49996 4.11027 7.40804C3.63233 7.55143 3.15439 7.26466 3.01101 6.83452C2.86763 6.35658 3.15439 5.87864 3.58454 5.73526C6.9779 4.73159 12.5698 4.92277 16.1065 7.0257C16.5367 7.26467 16.68 7.83819 16.4411 8.26833C16.2021 8.60289 15.6286 8.74626 15.1984 8.50729ZM15.1028 11.1837C14.8639 11.5183 14.4337 11.6617 14.0992 11.4227C11.5183 9.84552 7.59922 9.36759 4.58821 10.3235C4.20586 10.4191 3.77571 10.2279 3.68013 9.84553C3.58454 9.46318 3.77571 9.03303 4.15806 8.93744C7.64701 7.88598 11.9485 8.41171 14.9117 10.2279C15.1984 10.3713 15.3418 10.8492 15.1028 11.1837ZM13.9558 13.8124C13.7646 14.0992 13.4301 14.1948 13.1433 14.0036C10.897 12.6176 8.07716 12.3308 4.73159 13.0955C4.39703 13.1911 4.11027 12.9521 4.01468 12.6654C3.91909 12.3308 4.15806 12.044 4.44483 11.9485C8.07716 11.136 11.2315 11.4705 13.7168 12.9999C14.0514 13.1433 14.0992 13.5256 13.9558 13.8124ZM9.55876 0C4.30144 0 0 4.30144 0 9.55876C0 14.8161 4.30144 19.1175 9.55876 19.1175C14.8161 19.1175 19.1175 14.8161 19.1175 9.55876C19.1175 4.30144 14.8639 0 9.55876 0Z" fill="#FF2540"/>
</svg>
