<svg width="35" height="35" viewBox="0 0 35 35" fill="none" xmlns="http://www.w3.org/2000/svg">
<rect x="0.5" y="0.5" width="34" height="34" rx="17" fill="url(#paint0_linear_4182_44)"/>
<rect x="0.5" y="0.5" width="34" height="34" rx="17" stroke="#DBD43D"/>
<path fill-rule="evenodd" clip-rule="evenodd" d="M27.5002 13.7929C27.5002 17.2689 24.6702 20.0869 21.1802 20.0869C20.5442 20.0869 19.0942 19.9409 18.3892 19.3549L17.5072 20.2329C16.9882 20.7499 17.1282 20.9019 17.3592 21.1519C17.4552 21.2569 17.5672 21.3779 17.6542 21.5509C17.6542 21.5509 18.3892 22.5749 17.6542 23.5999C17.2132 24.1849 15.9782 25.0039 14.5682 23.5999L14.2742 23.8919C14.2742 23.8919 15.1552 24.9169 14.4212 25.9419C13.9802 26.5269 12.8042 27.1119 11.7752 26.0879L10.7472 27.1119C10.0412 27.8149 9.1792 27.4049 8.8372 27.1119L7.9542 26.2339C7.1312 25.4139 7.6112 24.5259 7.9542 24.1839L15.5962 16.5739C15.5962 16.5739 14.8612 15.4039 14.8612 13.7939C14.8612 10.3179 17.6912 7.49991 21.1812 7.49991C24.6712 7.49991 27.5002 10.3179 27.5002 13.7929ZM21.1812 15.9889C21.7645 15.99 22.3244 15.7593 22.7377 15.3477C23.151 14.9361 23.3839 14.3772 23.3852 13.7939C23.3847 13.505 23.3273 13.219 23.2162 12.9523C23.1052 12.6856 22.9427 12.4434 22.738 12.2394C22.5333 12.0355 22.2905 11.8739 22.0234 11.7638C21.7563 11.6538 21.4701 11.5974 21.1812 11.5979C20.8923 11.5974 20.6061 11.6538 20.339 11.7638C20.0719 11.8739 19.8291 12.0355 19.6244 12.2394C19.4197 12.4434 19.2572 12.6856 19.1462 12.9523C19.0352 13.219 18.9777 13.505 18.9772 13.7939C18.9785 14.3772 19.2114 14.9361 19.6247 15.3477C20.038 15.7593 20.5979 15.99 21.1812 15.9889Z" fill="#484103"/>
<defs>
<linearGradient id="paint0_linear_4182_44" x1="17.5" y1="49.8718" x2="17.5" y2="0" gradientUnits="userSpaceOnUse">
<stop stop-color="#9C972C"/>
<stop offset="1" stop-color="#FFF647"/>
</linearGradient>
</defs>
</svg>
