<svg width="35" height="35" viewBox="0 0 35 35" fill="none" xmlns="http://www.w3.org/2000/svg">
<rect x="0.5" y="0.5" width="34" height="34" rx="17" fill="url(#paint0_linear_4182_49)"/>
<rect x="0.5" y="0.5" width="34" height="34" rx="17" stroke="#2C9C30"/>
<path d="M16.2919 26.5V26.85H16.6419H18.4821H18.8321V26.5V25.1341C19.484 25.0496 20.0837 24.8875 20.6291 24.6449C21.4793 24.2698 22.1505 23.738 22.6263 23.044C23.1115 22.3466 23.35 21.5375 23.35 20.6306C23.35 19.5896 23.057 18.7199 22.4394 18.06C21.8324 17.405 20.8764 16.9147 19.6214 16.5605L19.6209 16.5604L16.8313 15.777C16.0475 15.5483 15.5116 15.2858 15.1877 15.0078C14.8874 14.738 14.7485 14.4269 14.7485 14.0558C14.7485 13.6961 14.8568 13.3841 15.0762 13.107C15.3022 12.8213 15.6152 12.5904 16.0296 12.4202C16.4489 12.2509 16.9289 12.1656 17.4754 12.1717L17.4757 12.1717C18.0594 12.1778 18.5743 12.2899 19.0266 12.5013L19.0266 12.5014L19.03 12.5029C19.4838 12.7091 19.8512 12.9976 20.1387 13.3687L20.1387 13.3687L20.141 13.3715C20.4335 13.7412 20.6245 14.1731 20.7116 14.6742L20.7715 15.0191L21.1163 14.9591L22.9772 14.6358L23.3314 14.5743L23.2604 14.2219C23.0783 13.3172 22.7223 12.5294 22.1874 11.8672C21.6613 11.2073 20.9948 10.703 20.1943 10.3548C19.7685 10.1661 19.3141 10.0277 18.8321 9.93839V8.5V8.15H18.4821H16.6419H16.2919V8.5V9.89641C15.7387 9.97876 15.2249 10.1245 14.7524 10.3359C13.9625 10.6859 13.3338 11.189 12.8799 11.8487L12.8794 11.8495C12.4287 12.5083 12.2083 13.2745 12.2083 14.1342C12.2083 15.059 12.4875 15.8563 13.0585 16.5021C13.6239 17.1416 14.4524 17.6067 15.5089 17.9189L15.5094 17.9191L18.9107 18.9185L18.9116 18.9188C19.6781 19.1418 20.1694 19.3992 20.4383 19.6647L20.4409 19.6672C20.7006 19.9184 20.8408 20.2537 20.8408 20.709C20.8408 21.3214 20.5867 21.8179 20.0419 22.2208C19.4908 22.6283 18.7501 22.8479 17.7895 22.8479C16.8453 22.8479 16.0575 22.61 15.4083 22.1488C14.7676 21.6887 14.3492 21.0708 14.1485 20.28L14.07 19.9708L13.7549 20.0203L11.9457 20.3045L11.5903 20.3603L11.6559 20.714C11.8244 21.6237 12.1855 22.4235 12.742 23.1056L12.7431 23.1069C13.2978 23.7799 14.0021 24.2989 14.8487 24.6655L14.8519 24.6669C15.3047 24.8576 15.785 24.9969 16.2919 25.0857V26.5Z" fill="#205213" stroke="#205213" stroke-width="0.7"/>
<defs>
<linearGradient id="paint0_linear_4182_49" x1="17.5" y1="49.8718" x2="17.5" y2="0" gradientUnits="userSpaceOnUse">
<stop stop-color="#2C9C30"/>
<stop offset="1" stop-color="#2C9C30"/>
</linearGradient>
</defs>
</svg>
